<?xml version="1.0" encoding="UTF-8" standalone="no"?>
<!DOCTYPE svg PUBLIC "-//W3C//DTD SVG 1.1//EN" "http://www.w3.org/Graphics/SVG/1.1/DTD/svg11.dtd">
<svg width="100%" height="100%" viewBox="0 0 128 128" version="1.1" xmlns="http://www.w3.org/2000/svg" xmlns:xlink="http://www.w3.org/1999/xlink" xml:space="preserve" style="fill-rule:evenodd;clip-rule:evenodd;stroke-linejoin:round;stroke-miterlimit:1.41421;">
    <g transform="matrix(1,0,0,1,0,-320)">
        <g id="laugh" transform="matrix(1,0,0,1,0,320)">
            <rect x="0" y="0" width="128" height="128" style="fill:none;"/>
            <path d="M64,9C33.615,9 9,33.615 9,64C9,94.385 33.615,119 64,119C94.384,119 119,94.385 119,64C119,33.615 94.384,9 64,9Z" style="fill:rgb(138,196,227);fill-rule:nonzero;"/>
            <g>
                <circle cx="81.765" cy="50.694" r="10" style="fill:rgb(2,43,86);"/>
                <circle cx="46.235" cy="50.694" r="10" style="fill:rgb(2,43,86);"/>
            </g>
            <path d="M99.445,72.5C79.918,111.102 48.133,111.219 28.555,72.532L99.445,72.5Z" style="fill:rgb(2,43,86);fill-rule:nonzero;"/>
        </g>
    </g>
</svg>
