<?xml version="1.0" encoding="UTF-8" standalone="no"?>
<!DOCTYPE svg PUBLIC "-//W3C//DTD SVG 1.1//EN" "http://www.w3.org/Graphics/SVG/1.1/DTD/svg11.dtd">
<svg width="100%" height="100%" viewBox="0 0 128 128" version="1.1" xmlns="http://www.w3.org/2000/svg" xmlns:xlink="http://www.w3.org/1999/xlink" xml:space="preserve" xmlns:serif="http://www.serif.com/" style="fill-rule:evenodd;clip-rule:evenodd;stroke-linejoin:round;stroke-miterlimit:2;">
    <g>
        <path d="M104,9L24,9C15.716,9 9,15.716 9,24L9,104C9,112.284 15.716,119 24,119L104,119C112.284,119 119,112.284 119,104L119,24C119,15.716 112.284,9 104,9Z" style="fill:rgb(66,97,128);fill-rule:nonzero;"/>
    </g>
    <g>
        <path d="M104,63.996C104,80.057 86.098,93.095 64,93.095C41.903,93.095 24,80.057 24,63.996C24,47.927 41.903,34.911 64,34.911C86.098,34.911 104,47.927 104,63.996Z" style="fill:white;"/>
        <path d="M77.957,44.533C74.03,41.693 69.21,40.02 64,40.02C50.796,40.02 40.106,50.751 40.106,64.008C40.106,77.242 50.795,87.982 64,87.982C77.196,87.982 87.894,77.243 87.894,64.008C87.894,63.655 87.886,63.305 87.871,62.954C85.763,66.648 81.81,69.138 77.286,69.138C70.513,69.138 65.045,63.616 65.045,56.825C65.045,50.025 70.513,44.515 77.286,44.515C77.511,44.515 77.735,44.521 77.957,44.533Z" style="fill:rgb(28,160,55);"/>
    </g>
</svg>
