<?xml version="1.0" encoding="UTF-8" standalone="no"?>
<!DOCTYPE svg PUBLIC "-//W3C//DTD SVG 1.1//EN" "http://www.w3.org/Graphics/SVG/1.1/DTD/svg11.dtd">
<svg width="100%" height="100%" viewBox="0 0 512 512" version="1.1" xmlns="http://www.w3.org/2000/svg" xmlns:xlink="http://www.w3.org/1999/xlink" xml:space="preserve" xmlns:serif="http://www.serif.com/" style="fill-rule:evenodd;clip-rule:evenodd;stroke-linejoin:round;stroke-miterlimit:2;">
    <path d="M238.07,342.59C238.07,336.75 241.12,332.66 242.62,328.08C244.46,322.45 247.09,317.08 249.47,311.62C250.47,309.36 249.71,307.91 247.75,306.76C243.75,304.43 241.57,300.42 238.82,296.99C237.382,295.07 237.487,292.382 239.07,290.58C243.2,285.69 248.27,282.78 254.99,283.58C257.471,283.786 259.962,283.846 262.45,283.76C268.55,283.76 272.09,287.64 275.23,292.1C276.44,293.82 275.36,295.28 274.37,296.63C272.19,299.58 270.11,302.71 267.08,304.8C263.43,307.32 263.41,310.15 264.99,313.85C268.33,321.64 271.29,329.59 274.63,337.38C276.12,340.85 275.78,343.62 273.35,346.55C269.378,351.262 264.924,355.546 260.06,359.33C257.93,361.02 256.13,361.22 253.85,359.45C248.781,355.443 244.049,351.028 239.7,346.25C238.43,344.84 238,343.55 238.07,342.59Z" style="fill:rgb(254,254,254);fill-rule:nonzero;"/>
    <path d="M499.58,212.14C497.85,196.03 492.4,180.88 486.73,165.93C470.89,124.24 444.39,90.24 410,62.17C399.898,53.965 389.085,46.676 377.69,40.39C324.89,11.1 268.38,0.76 209.34,13.14C116.72,32.54 54,87.88 21.27,176.79C16.27,190.47 12.47,204.6 11.27,219.27C8.216,237.25 7.4,255.539 8.84,273.72C17.867,402.729 126.521,504.047 255.846,504.047C274.831,504.047 293.754,501.864 312.24,497.54C423.84,471.71 503.67,371.28 503.72,256.85C503.78,241.79 501.79,227 499.58,212.14ZM177.12,178.62C177.65,175.39 179.12,172.57 182.26,171.51C185.4,170.45 185.88,168.57 185.56,165.67C184.24,153.98 183.36,142.3 184.35,130.5C185.58,115.82 191.45,103.5 202.35,93.81C216.62,81.18 233.63,75.38 252.6,74.88C267.8,74.47 282.37,77.17 295.8,84.28C315.72,94.83 326.24,111.6 327.8,134.19C328.52,144.62 327.55,154.93 326.32,165.19C325.95,168.34 326.13,170.28 329.51,171.42C332.89,172.56 334.21,175.59 334.81,178.96C336.6,189.07 334.25,198.21 328.39,206.54C326.93,208.62 325.57,210.77 324.16,212.89C320.55,219.41 316.88,225.89 313.32,232.44C308.621,241.143 302.693,249.125 295.72,256.14C272,280 238.29,279.53 215,255.13C204.64,244.26 197.58,231.28 190.69,218.13C189.51,213.69 186.48,210.37 183.69,207C176.69,198.61 175.4,189 177.12,178.62ZM264.21,314.31C267.62,322.31 270.65,330.42 274.07,338.4C275.6,341.95 275.25,344.78 272.77,347.79C268.703,352.61 264.145,356.994 259.17,360.87C256.99,362.6 255.17,362.8 252.81,360.99C247.62,356.892 242.774,352.377 238.32,347.49C237,346.07 236.51,344.75 236.63,343.76C236.63,337.76 239.76,333.59 241.3,328.91C243.18,323.15 245.88,317.64 248.3,312.06C249.3,309.75 248.55,308.26 246.54,307.06C242.48,304.67 240.21,300.57 237.4,297.06C235.93,295.094 236.039,292.343 237.66,290.5C241.89,285.5 247.07,282.5 253.96,283.3C256.501,283.509 259.052,283.569 261.6,283.48C267.84,283.48 271.47,287.48 274.68,292.02C275.93,293.78 274.82,295.28 273.8,296.66C271.57,299.66 269.44,302.88 266.34,305.02C262.6,307.62 262.58,310.52 264.21,314.31ZM404.78,374.79C403.43,386.01 395.2,393.09 383.94,393.09L129.6,393.09C128.24,393.09 126.87,393.15 125.51,393.09C112.24,392.33 106.82,386.72 106.8,373.36C106.8,361.98 106.12,350.59 109.46,339.36C114.02,324.06 122.99,312.95 137.65,306.36C158.35,297.02 180.29,291.51 201.91,285.01C204.49,284.24 206.26,284.45 205.84,287.91C202.92,312.04 214.96,330.52 228.84,348.28C235.303,356.435 242.854,363.665 251.28,369.77C254,371.77 256.67,372.77 259.65,370.49C281.84,353.68 298.56,332.96 305.59,305.49C307.04,299.83 306.51,293.94 306.13,288.16C305.9,284.77 307.52,284.24 310.06,285.1C331.56,292.39 353.87,297.1 374.68,306.61C393.24,315.06 401.97,329.94 404.39,349.32C405.559,357.762 405.69,366.316 404.78,374.79Z" style="fill:rgb(66,97,128);fill-rule:nonzero;"/>
    <path d="M204.63,223.43C208.125,231.334 212.618,238.758 218,245.52C227.141,257.163 241.149,263.974 255.951,263.974C270.395,263.974 284.101,257.489 293.26,246.32C299.26,239.1 303.16,230.62 307.59,222.45C311.68,214.45 315.59,206.39 321.23,199.19C325.23,194.12 326.15,187.64 325.23,181.19C324.85,178.5 323.43,176.31 320.55,175.72C317.83,175.18 316.78,177.42 315.41,179.15C314.29,180.56 314.41,183.15 311.27,183.36C313.27,175.48 314.2,167.75 315.27,160.05C315.78,156.53 314.79,154.71 310.79,154.52C304.33,154.22 297.87,153.52 291.45,152.75C268.23,149.83 247.07,142.09 230.02,125.41C226.09,121.56 222.14,121.05 217.54,123.33C204.33,129.88 193.18,142.28 196.84,163.59C197.93,169.95 199.75,176.29 199.7,183.01C197.7,182.7 197.64,181.26 197.04,180.35C195.52,178.07 194.2,175.23 190.84,176.14C187.32,177.08 186.52,180.19 186.42,183.41C186.25,188.41 186.83,193.66 189.77,197.64C195.77,205.68 200.24,214.52 204.63,223.43Z" style="fill:rgb(66,97,128);fill-rule:nonzero;"/>
</svg>
